<svg width="82" height="23" viewBox="0 0 82 23" fill="none" xmlns="http://www.w3.org/2000/svg">
<path d="M35.7227 6.75781H37.3223V13.2388C37.3223 14.1232 37.0451 14.8257 36.4907 15.3462C35.9406 15.8667 35.2127 16.127 34.3071 16.127C33.3423 16.127 32.5975 15.8836 32.0728 15.397C31.548 14.9103 31.2856 14.2332 31.2856 13.3657H32.8853C32.8853 13.8566 33.0059 14.2269 33.2471 14.4766C33.4925 14.722 33.8459 14.8447 34.3071 14.8447C34.7388 14.8447 35.0815 14.703 35.3354 14.4194C35.5936 14.1317 35.7227 13.736 35.7227 13.2324V6.75781Z" fill="#1E2D4D"/>
<path d="M44.1968 13.8481H40.6167L39.8677 16H38.1982L41.6895 6.75781H43.1304L46.6279 16H44.9521L44.1968 13.8481ZM41.0674 12.5532H43.7461L42.4067 8.71924L41.0674 12.5532Z" fill="#1E2D4D"/>
<path d="M47.6816 16V6.75781H50.8491C51.8944 6.75781 52.6899 6.96729 53.2358 7.38623C53.7817 7.80518 54.0547 8.42936 54.0547 9.25879C54.0547 9.68197 53.9404 10.0628 53.7119 10.4014C53.4834 10.7399 53.1491 11.0023 52.709 11.1885C53.2083 11.3239 53.5934 11.5799 53.8643 11.9565C54.1393 12.3289 54.2769 12.7775 54.2769 13.3022C54.2769 14.1698 53.9976 14.8363 53.439 15.3018C52.8846 15.7673 52.089 16 51.0522 16H47.6816ZM49.2876 11.8296V14.7178H51.0713C51.5749 14.7178 51.9684 14.5929 52.252 14.3433C52.5355 14.0936 52.6772 13.7466 52.6772 13.3022C52.6772 12.3416 52.1864 11.8507 51.2046 11.8296H49.2876ZM49.2876 10.6489H50.8618C51.3612 10.6489 51.7505 10.5368 52.0298 10.3125C52.3133 10.084 52.4551 9.76237 52.4551 9.34766C52.4551 8.89062 52.3239 8.56055 52.0615 8.35742C51.8034 8.1543 51.3993 8.05273 50.8491 8.05273H49.2876V10.6489Z" fill="#1E2D4D"/>
<path d="M63.2588 11.6201C63.2588 12.5257 63.1022 13.3213 62.7891 14.0068C62.4759 14.6882 62.0273 15.2129 61.4434 15.5811C60.8636 15.945 60.195 16.127 59.4375 16.127C58.6885 16.127 58.0199 15.945 57.4316 15.5811C56.8477 15.2129 56.3949 14.6903 56.0732 14.0132C55.7559 13.3361 55.5951 12.5553 55.5908 11.6709V11.1504C55.5908 10.249 55.7495 9.45345 56.0669 8.76367C56.3885 8.07389 56.8392 7.54704 57.4189 7.18311C58.0029 6.81494 58.6715 6.63086 59.4248 6.63086C60.1781 6.63086 60.8446 6.81283 61.4243 7.17676C62.0083 7.53646 62.459 8.05697 62.7764 8.73828C63.0938 9.41536 63.2546 10.2046 63.2588 11.106V11.6201ZM61.6528 11.1377C61.6528 10.1136 61.4582 9.32861 61.0688 8.78271C60.6838 8.23682 60.1357 7.96387 59.4248 7.96387C58.7308 7.96387 58.187 8.23682 57.7935 8.78271C57.4041 9.32438 57.2052 10.0924 57.1968 11.0869V11.6201C57.1968 12.6357 57.3936 13.4207 57.7871 13.9751C58.1849 14.5295 58.735 14.8066 59.4375 14.8066C60.1484 14.8066 60.6943 14.5358 61.0752 13.9941C61.4603 13.4525 61.6528 12.6611 61.6528 11.6201V11.1377Z" fill="#1E2D4D"/>
<path d="M72.1899 16H70.584L66.4644 9.44287V16H64.8584V6.75781H66.4644L70.5967 13.3403V6.75781H72.1899V16Z" fill="#1E2D4D"/>
<path d="M81.1719 14.8003C80.8376 15.2362 80.3742 15.5662 79.7817 15.7905C79.1893 16.0148 78.5164 16.127 77.7632 16.127C76.9888 16.127 76.3032 15.9513 75.7065 15.6001C75.1099 15.2489 74.6486 14.7474 74.3228 14.0957C74.0011 13.4398 73.834 12.6759 73.8213 11.8042V11.0806C73.8213 9.68408 74.1556 8.5944 74.8242 7.81152C75.4928 7.02441 76.4259 6.63086 77.6235 6.63086C78.6519 6.63086 79.4686 6.88477 80.0737 7.39258C80.6789 7.90039 81.0428 8.63249 81.1655 9.58887H79.5913C79.4136 8.47591 78.7682 7.91943 77.6553 7.91943C76.9359 7.91943 76.3879 8.17969 76.0112 8.7002C75.6388 9.21647 75.4463 9.97607 75.4336 10.979V11.6899C75.4336 12.6886 75.6431 13.4652 76.062 14.0195C76.4852 14.5697 77.0713 14.8447 77.8203 14.8447C78.6413 14.8447 79.2253 14.6585 79.5723 14.2861V12.4771H77.668V11.2583H81.1719V14.8003Z" fill="#1E2D4D"/>
<path d="M0 5C0 2.23858 2.23858 0 5 0H16C18.7614 0 21 2.23858 21 5V5C21 7.76142 18.7614 10 16 10H5C2.23858 10 0 7.76142 0 5V5Z" fill="#1E2D4D"/>
<path d="M9 18C9 15.2386 11.2386 13 14 13H16C18.7614 13 21 15.2386 21 18V18C21 20.7614 18.7614 23 16 23H14C11.2386 23 9 20.7614 9 18V18Z" fill="#ACBDAA"/>
</svg>
